<svg xmlns="http://www.w3.org/2000/svg" xmlns:xlink="http://www.w3.org/1999/xlink" width="296" zoomAndPan="magnify" viewBox="0 0 222 278.999983" height="372" preserveAspectRatio="xMidYMid meet" version="1.0"><defs><g/><clipPath id="91d12c61c2"><path d="M 52.734375 49.050781 L 171.421875 49.050781 L 171.421875 223.46875 L 52.734375 223.46875 Z M 52.734375 49.050781 " clip-rule="nonzero"/></clipPath><clipPath id="549c129483"><path d="M 51.832031 48.152344 L 172.3125 48.152344 L 172.3125 224.363281 L 51.832031 224.363281 Z M 51.832031 48.152344 " clip-rule="nonzero"/></clipPath></defs><g clip-path="url(#91d12c61c2)"><path fill="#ffffff" d="M 172.449219 54.363281 C 169.011719 54.363281 166.222656 51.578125 166.222656 48.148438 L 58.199219 48.148438 C 58.199219 51.578125 55.410156 54.363281 51.96875 54.363281 L 51.96875 218.195312 C 55.410156 218.195312 58.199219 220.980469 58.199219 224.410156 L 166.222656 224.410156 C 166.222656 220.980469 169.011719 218.195312 172.449219 218.195312 Z M 171.894531 54.894531 L 171.894531 217.664062 C 168.59375 217.933594 165.957031 220.5625 165.691406 223.859375 L 58.730469 223.859375 C 58.460938 220.5625 55.824219 217.933594 52.523438 217.664062 L 52.523438 54.894531 C 55.824219 54.628906 58.460938 51.996094 58.730469 48.699219 L 165.691406 48.699219 C 165.957031 51.996094 168.59375 54.628906 171.894531 54.894531 Z M 171.894531 54.894531 " fill-opacity="1" fill-rule="evenodd"/></g><g clip-path="url(#549c129483)"><path stroke-linecap="butt" transform="matrix(0.75, 0, 0, 0.75, 51.833881, 48.150395)" fill="none" stroke-linejoin="miter" d="M -0.00246693 0.00259772 L -0.00246693 234.950538 L 160.638175 234.950538 L 160.638175 0.00259772 L -0.00246693 0.00259772 " stroke="#ffffff" stroke-width="12" stroke-opacity="1" stroke-miterlimit="4"/></g><g fill="#9f5b4c" fill-opacity="1"><g transform="translate(91.995511, 87.509417)"><g><path d="M 5.84375 0 C 5.382812 0 4.925781 0.015625 4.46875 0.046875 C 4.019531 0.0859375 3.226562 0.109375 2.09375 0.109375 C 1.945312 0.109375 1.875 0.0625 1.875 -0.03125 C 1.875 -0.132812 1.945312 -0.1875 2.09375 -0.1875 C 2.976562 -0.207031 3.664062 -0.359375 4.15625 -0.640625 C 4.65625 -0.929688 5.003906 -1.515625 5.203125 -2.390625 C 5.410156 -3.273438 5.515625 -4.582031 5.515625 -6.3125 L 5.515625 -21.515625 C 5.015625 -21.316406 4.425781 -21.117188 3.75 -20.921875 C 3.082031 -20.734375 2.273438 -20.566406 1.328125 -20.421875 C 1.285156 -20.421875 1.257812 -20.492188 1.25 -20.640625 C 1.238281 -20.785156 1.242188 -20.867188 1.265625 -20.890625 C 2.515625 -21.109375 3.757812 -21.421875 5 -21.828125 C 6.238281 -22.242188 7.378906 -22.75 8.421875 -23.34375 C 9.472656 -23.945312 10.320312 -24.632812 10.96875 -25.40625 C 11.019531 -25.457031 11.101562 -25.484375 11.21875 -25.484375 C 11.34375 -25.484375 11.40625 -25.457031 11.40625 -25.40625 L 11.40625 -6.3125 C 11.40625 -4.582031 11.503906 -3.273438 11.703125 -2.390625 C 11.910156 -1.515625 12.257812 -0.929688 12.75 -0.640625 C 13.25 -0.359375 13.941406 -0.207031 14.828125 -0.1875 C 14.972656 -0.1875 15.046875 -0.132812 15.046875 -0.03125 C 15.046875 0.0625 14.972656 0.109375 14.828125 0.109375 C 13.722656 0.109375 12.9375 0.0859375 12.46875 0.046875 C 12 0.015625 11.535156 0 11.078125 0 Z M 5.84375 0 "/></g></g></g><g fill="#9f5b4c" fill-opacity="1"><g transform="translate(105.597536, 87.509417)"><g><path d="M 23.859375 -6.203125 L 23.859375 -5.734375 L 18.046875 -5.734375 C 18.066406 -4.171875 18.1875 -2.992188 18.40625 -2.203125 C 18.625 -1.410156 18.976562 -0.878906 19.46875 -0.609375 C 19.96875 -0.347656 20.648438 -0.207031 21.515625 -0.1875 C 21.628906 -0.1875 21.6875 -0.132812 21.6875 -0.03125 C 21.6875 0.0625 21.628906 0.109375 21.515625 0.109375 C 20.398438 0.109375 19.601562 0.0859375 19.125 0.046875 C 18.644531 0.015625 18.175781 0 17.71875 0 L 12.625 0 C 12.175781 0 11.722656 0.015625 11.265625 0.046875 C 10.804688 0.0859375 10.007812 0.109375 8.875 0.109375 C 8.726562 0.109375 8.65625 0.0625 8.65625 -0.03125 C 8.65625 -0.132812 8.726562 -0.1875 8.875 -0.1875 C 9.738281 -0.207031 10.410156 -0.347656 10.890625 -0.609375 C 11.378906 -0.878906 11.726562 -1.410156 11.9375 -2.203125 C 12.15625 -2.992188 12.28125 -4.171875 12.3125 -5.734375 L 1.65625 -5.734375 L 1.546875 -5.953125 L 10.90625 -17.90625 C 11.164062 -20.53125 11.5 -22.546875 11.90625 -23.953125 C 12.320312 -25.359375 12.960938 -26.0625 13.828125 -26.0625 C 14.378906 -26.0625 14.757812 -25.875 14.96875 -25.5 C 15.1875 -25.125 15.296875 -24.707031 15.296875 -24.25 C 15.296875 -23.695312 15.085938 -23.035156 14.671875 -22.265625 C 14.253906 -21.492188 13.703125 -20.648438 13.015625 -19.734375 C 12.328125 -18.828125 11.597656 -17.878906 10.828125 -16.890625 L 2.375 -6.203125 L 12.3125 -6.203125 L 12.3125 -12.953125 C 13.269531 -13.054688 14.257812 -13.28125 15.28125 -13.625 C 16.300781 -13.976562 17.195312 -14.5625 17.96875 -15.375 L 18.046875 -15.375 L 18.046875 -6.203125 Z M 23.859375 -6.203125 "/></g></g></g><g fill="#9f5b4c" fill-opacity="1"><g transform="translate(90.41348, 146.009411)"><g><path d="M 5.84375 0 C 5.382812 0 4.925781 0.015625 4.46875 0.046875 C 4.019531 0.0859375 3.226562 0.109375 2.09375 0.109375 C 1.945312 0.109375 1.875 0.0625 1.875 -0.03125 C 1.875 -0.132812 1.945312 -0.1875 2.09375 -0.1875 C 2.976562 -0.207031 3.664062 -0.359375 4.15625 -0.640625 C 4.65625 -0.929688 5.003906 -1.515625 5.203125 -2.390625 C 5.410156 -3.273438 5.515625 -4.582031 5.515625 -6.3125 L 5.515625 -21.515625 C 5.015625 -21.316406 4.425781 -21.117188 3.75 -20.921875 C 3.082031 -20.734375 2.273438 -20.566406 1.328125 -20.421875 C 1.285156 -20.421875 1.257812 -20.492188 1.25 -20.640625 C 1.238281 -20.785156 1.242188 -20.867188 1.265625 -20.890625 C 2.515625 -21.109375 3.757812 -21.421875 5 -21.828125 C 6.238281 -22.242188 7.378906 -22.75 8.421875 -23.34375 C 9.472656 -23.945312 10.320312 -24.632812 10.96875 -25.40625 C 11.019531 -25.457031 11.101562 -25.484375 11.21875 -25.484375 C 11.34375 -25.484375 11.40625 -25.457031 11.40625 -25.40625 L 11.40625 -6.3125 C 11.40625 -4.582031 11.503906 -3.273438 11.703125 -2.390625 C 11.910156 -1.515625 12.257812 -0.929688 12.75 -0.640625 C 13.25 -0.359375 13.941406 -0.207031 14.828125 -0.1875 C 14.972656 -0.1875 15.046875 -0.132812 15.046875 -0.03125 C 15.046875 0.0625 14.972656 0.109375 14.828125 0.109375 C 13.722656 0.109375 12.9375 0.0859375 12.46875 0.046875 C 12 0.015625 11.535156 0 11.078125 0 Z M 5.84375 0 "/></g></g></g><g fill="#9f5b4c" fill-opacity="1"><g transform="translate(104.015505, 146.009411)"><g><path d="M 13.78125 0.46875 C 11.300781 0.46875 9.101562 -0.0820312 7.1875 -1.1875 C 5.28125 -2.289062 3.785156 -3.820312 2.703125 -5.78125 C 1.617188 -7.75 1.078125 -10.03125 1.078125 -12.625 C 1.078125 -15.226562 1.617188 -17.515625 2.703125 -19.484375 C 3.785156 -21.460938 5.28125 -23 7.1875 -24.09375 C 9.101562 -25.1875 11.289062 -25.734375 13.75 -25.734375 C 16.207031 -25.734375 18.390625 -25.1875 20.296875 -24.09375 C 22.210938 -23 23.710938 -21.460938 24.796875 -19.484375 C 25.878906 -17.515625 26.421875 -15.226562 26.421875 -12.625 C 26.421875 -10.03125 25.878906 -7.75 24.796875 -5.78125 C 23.710938 -3.820312 22.21875 -2.289062 20.3125 -1.1875 C 18.414062 -0.0820312 16.238281 0.46875 13.78125 0.46875 Z M 13.71875 -0.03125 C 15.78125 -0.03125 17.378906 -1.109375 18.515625 -3.265625 C 19.648438 -5.421875 20.21875 -8.539062 20.21875 -12.625 C 20.21875 -16.71875 19.648438 -19.84375 18.515625 -22 C 17.378906 -24.15625 15.78125 -25.234375 13.71875 -25.234375 C 11.695312 -25.234375 10.117188 -24.15625 8.984375 -22 C 7.859375 -19.84375 7.296875 -16.71875 7.296875 -12.625 C 7.296875 -8.539062 7.859375 -5.421875 8.984375 -3.265625 C 10.117188 -1.109375 11.695312 -0.03125 13.71875 -0.03125 Z M 13.71875 -0.03125 "/></g></g></g><g fill="#9f5b4c" fill-opacity="1"><g transform="translate(86.862699, 204.509405)"><g><path d="M 5.78125 -4.40625 C 5.363281 -4.40625 4.894531 -4.335938 4.375 -4.203125 C 3.863281 -4.066406 3.390625 -3.882812 2.953125 -3.65625 C 2.523438 -3.4375 2.238281 -3.15625 2.09375 -2.8125 C 2.144531 -2.695312 2.21875 -2.601562 2.3125 -2.53125 C 2.570312 -2.363281 2.875 -2.207031 3.21875 -2.0625 C 3.570312 -1.914062 3.878906 -1.734375 4.140625 -1.515625 C 4.410156 -1.296875 4.546875 -0.992188 4.546875 -0.609375 C 4.546875 -0.296875 4.421875 -0.0390625 4.171875 0.15625 C 3.921875 0.363281 3.625 0.46875 3.28125 0.46875 C 2.726562 0.46875 2.25 0.179688 1.84375 -0.390625 C 1.4375 -0.972656 1.351562 -1.707031 1.59375 -2.59375 C 1.59375 -3.4375 1.914062 -4.273438 2.5625 -5.109375 C 3.207031 -5.941406 4.234375 -6.847656 5.640625 -7.828125 C 7.054688 -8.816406 8.867188 -9.960938 11.078125 -11.265625 C 12.785156 -12.242188 14.101562 -13.207031 15.03125 -14.15625 C 15.957031 -15.113281 16.59375 -16.054688 16.9375 -16.984375 C 17.289062 -17.910156 17.46875 -18.796875 17.46875 -19.640625 C 17.46875 -20.765625 17.175781 -21.742188 16.59375 -22.578125 C 16.019531 -23.410156 15.304688 -24.050781 14.453125 -24.5 C 13.597656 -24.957031 12.738281 -25.1875 11.875 -25.1875 C 11.507812 -25.1875 11.1875 -25.140625 10.90625 -25.046875 C 10.632812 -24.953125 10.378906 -24.84375 10.140625 -24.71875 C 9.773438 -23.851562 9.460938 -23.015625 9.203125 -22.203125 C 8.941406 -21.398438 8.65625 -20.664062 8.34375 -20 C 8.03125 -19.34375 7.628906 -18.820312 7.140625 -18.4375 C 6.660156 -18.050781 6.035156 -17.859375 5.265625 -17.859375 C 4.734375 -17.859375 4.289062 -18.023438 3.9375 -18.359375 C 3.59375 -18.703125 3.421875 -19.175781 3.421875 -19.78125 C 3.421875 -20.625 3.738281 -21.40625 4.375 -22.125 C 5.019531 -22.84375 5.84375 -23.472656 6.84375 -24.015625 C 7.84375 -24.554688 8.890625 -24.976562 9.984375 -25.28125 C 11.078125 -25.582031 12.082031 -25.734375 13 -25.734375 C 14.34375 -25.734375 15.640625 -25.597656 16.890625 -25.328125 C 18.140625 -25.066406 19.265625 -24.671875 20.265625 -24.140625 C 21.265625 -23.617188 22.050781 -22.957031 22.625 -22.15625 C 23.207031 -21.363281 23.5 -20.453125 23.5 -19.421875 C 23.5 -18.265625 23.148438 -17.195312 22.453125 -16.21875 C 21.753906 -15.25 20.832031 -14.363281 19.6875 -13.5625 C 18.539062 -12.769531 17.304688 -12.0625 15.984375 -11.4375 C 14.660156 -10.8125 13.382812 -10.269531 12.15625 -9.8125 C 9.25 -8.632812 6.957031 -7.554688 5.28125 -6.578125 C 3.613281 -5.609375 2.550781 -4.554688 2.09375 -3.421875 C 2.769531 -4.097656 3.5625 -4.628906 4.46875 -5.015625 C 5.382812 -5.398438 6.300781 -5.671875 7.21875 -5.828125 C 8.132812 -5.984375 8.90625 -6.0625 9.53125 -6.0625 C 10.65625 -6.0625 11.71875 -5.882812 12.71875 -5.53125 C 13.71875 -5.1875 14.722656 -4.835938 15.734375 -4.484375 C 16.742188 -4.140625 17.851562 -3.96875 19.0625 -3.96875 C 20.21875 -3.96875 21.160156 -4.128906 21.890625 -4.453125 C 22.617188 -4.773438 23.222656 -5.363281 23.703125 -6.21875 C 24.191406 -7.070312 24.628906 -8.296875 25.015625 -9.890625 C 25.035156 -9.941406 25.097656 -9.96875 25.203125 -9.96875 C 25.316406 -9.96875 25.375 -9.941406 25.375 -9.890625 C 24.820312 -7.390625 24.300781 -5.375 23.8125 -3.84375 C 23.332031 -2.3125 22.734375 -1.207031 22.015625 -0.53125 C 21.296875 0.132812 20.296875 0.46875 19.015625 0.46875 C 18.003906 0.46875 17.035156 0.304688 16.109375 -0.015625 C 15.179688 -0.335938 14.28125 -0.738281 13.40625 -1.21875 C 12.53125 -1.707031 11.671875 -2.195312 10.828125 -2.6875 C 9.984375 -3.175781 9.140625 -3.582031 8.296875 -3.90625 C 7.453125 -4.238281 6.613281 -4.40625 5.78125 -4.40625 Z M 5.78125 -4.40625 "/></g></g></g><g fill="#9f5b4c" fill-opacity="1"><g transform="translate(110.748086, 204.509405)"><g><path d="M 23.859375 -6.203125 L 23.859375 -5.734375 L 18.046875 -5.734375 C 18.066406 -4.171875 18.1875 -2.992188 18.40625 -2.203125 C 18.625 -1.410156 18.976562 -0.878906 19.46875 -0.609375 C 19.96875 -0.347656 20.648438 -0.207031 21.515625 -0.1875 C 21.628906 -0.1875 21.6875 -0.132812 21.6875 -0.03125 C 21.6875 0.0625 21.628906 0.109375 21.515625 0.109375 C 20.398438 0.109375 19.601562 0.0859375 19.125 0.046875 C 18.644531 0.015625 18.175781 0 17.71875 0 L 12.625 0 C 12.175781 0 11.722656 0.015625 11.265625 0.046875 C 10.804688 0.0859375 10.007812 0.109375 8.875 0.109375 C 8.726562 0.109375 8.65625 0.0625 8.65625 -0.03125 C 8.65625 -0.132812 8.726562 -0.1875 8.875 -0.1875 C 9.738281 -0.207031 10.410156 -0.347656 10.890625 -0.609375 C 11.378906 -0.878906 11.726562 -1.410156 11.9375 -2.203125 C 12.15625 -2.992188 12.28125 -4.171875 12.3125 -5.734375 L 1.65625 -5.734375 L 1.546875 -5.953125 L 10.90625 -17.90625 C 11.164062 -20.53125 11.5 -22.546875 11.90625 -23.953125 C 12.320312 -25.359375 12.960938 -26.0625 13.828125 -26.0625 C 14.378906 -26.0625 14.757812 -25.875 14.96875 -25.5 C 15.1875 -25.125 15.296875 -24.707031 15.296875 -24.25 C 15.296875 -23.695312 15.085938 -23.035156 14.671875 -22.265625 C 14.253906 -21.492188 13.703125 -20.648438 13.015625 -19.734375 C 12.328125 -18.828125 11.597656 -17.878906 10.828125 -16.890625 L 2.375 -6.203125 L 12.3125 -6.203125 L 12.3125 -12.953125 C 13.269531 -13.054688 14.257812 -13.28125 15.28125 -13.625 C 16.300781 -13.976562 17.195312 -14.5625 17.96875 -15.375 L 18.046875 -15.375 L 18.046875 -6.203125 Z M 23.859375 -6.203125 "/></g></g></g></svg>